<?xml version="1.0" encoding="UTF-8"?>
<svg xmlns="http://www.w3.org/2000/svg" width="900" height="300" viewBox="0 0 900 300">
  <rect width="100%" height="100%" fill="white"/>
  <line x1="30" y1="270" x2="870" y2="270" stroke="#999" stroke-width="1"/>
  <line x1="30" y1="30" x2="30" y2="270" stroke="#999" stroke-width="1"/>
  <polygon points="30.0,270 30.0,270.0 89.06,270.0 93.21,30.0 120.52,181.11 131.82,234.44 164.85,225.56 179.01,207.78 190.02,243.33 207.75,216.67 221.77,234.44 244.22,190.0 271.82,118.89 282.11,83.33 288.12,118.89 319.01,172.22 375.35,207.78 381.93,243.33 446.28,234.44 491.04,234.44 563.83,225.56 596.58,234.44 600.73,234.44 617.31,243.33 627.9,234.44 635.05,234.44 639.77,225.56 650.92,207.78 667.36,207.78 681.24,216.67 698.25,225.56 719.27,234.44 747.73,243.33 801.64,261.11 810.94,261.11 870.0,270.0 870.0,270" fill="#e6f2ff" stroke="none" opacity="0.85"/>
  <polyline points="30.0,270.0 89.06,270.0 93.21,30.0 120.52,181.11 131.82,234.44 164.85,225.56 179.01,207.78 190.02,243.33 207.75,216.67 221.77,234.44 244.22,190.0 271.82,118.89 282.11,83.33 288.12,118.89 319.01,172.22 375.35,207.78 381.93,243.33 446.28,234.44 491.04,234.44 563.83,225.56 596.58,234.44 600.73,234.44 617.31,243.33 627.9,234.44 635.05,234.44 639.77,225.56 650.92,207.78 667.36,207.78 681.24,216.67 698.25,225.56 719.27,234.44 747.73,243.33 801.64,261.11 810.94,261.11 870.0,270.0" fill="none" stroke="blue" stroke-width="2"/>
  <!-- Título desplazado a la derecha -->
  <text x="90" y="18" font-size="12" fill="#000" dominant-baseline="hanging">Altimetría del circuito</text>
  
      <text x="870" y="284" font-size="10" text-anchor="end" fill="#666">5874 m</text>
      <text x="30" y="32" font-size="10" text-anchor="start" fill="#666">185 m</text>
      <text x="30" y="284" font-size="10" text-anchor="start" fill="#666">158 m</text>
    
</svg>