<?xml version="1.0" encoding="UTF-8"?>
<svg xmlns="http://www.w3.org/2000/svg" width="900" height="300" viewBox="0 0 900 300">
<rect width="100%" height="100%" fill="white" />
<line x1="60.00" y1="260.00" x2="870.00" y2="260.00" stroke="#999" stroke-width="1.0" />
<line x1="60.00" y1="30.00" x2="60.00" y2="260.00" stroke="#999" stroke-width="1.0" />
<polygon points="60.00,260.00 60.00,260.00 116.95,260.00 120.95,30.00 147.29,174.81 158.18,225.93 190.04,217.41 203.69,200.37 214.31,234.44 231.40,208.89 244.92,225.93 266.57,183.33 293.18,115.19 303.11,81.11 308.90,115.19 338.69,166.30 393.02,200.37 399.36,234.44 461.41,225.93 504.58,225.93 574.77,217.41 606.34,225.93 610.34,225.93 626.34,234.44 636.54,225.93 643.44,225.93 647.99,217.41 658.74,200.37 674.60,200.37 687.98,208.89 704.39,217.41 724.66,225.93 752.10,234.44 804.09,251.48 813.05,251.48 870.00,260.00 870.00,260.00" fill="#e6f2ff" stroke="none" opacity="0.85" />
<polyline points="60.00,260.00 116.95,260.00 120.95,30.00 147.29,174.81 158.18,225.93 190.04,217.41 203.69,200.37 214.31,234.44 231.40,208.89 244.92,225.93 266.57,183.33 293.18,115.19 303.11,81.11 308.90,115.19 338.69,166.30 393.02,200.37 399.36,234.44 461.41,225.93 504.58,225.93 574.77,217.41 606.34,225.93 610.34,225.93 626.34,234.44 636.54,225.93 643.44,225.93 647.99,217.41 658.74,200.37 674.60,200.37 687.98,208.89 704.39,217.41 724.66,225.93 752.10,234.44 804.09,251.48 813.05,251.48 870.00,260.00" stroke="black" stroke-width="2.0" fill="none" />
<text x="120.00" y="18.00" font-size="12" text-anchor="start" fill="#000">Altimetría del circuito</text>
<text x="870.00" y="274.00" font-size="10" text-anchor="end" fill="#666">5874 m</text>
<text x="60.00" y="32.00" font-size="10" text-anchor="start" fill="#666">185 m</text>
<text x="60.00" y="274.00" font-size="10" text-anchor="start" fill="#666">158 m</text>
</svg>
