<?xml version="1.0" encoding="utf-8"?><svg width="auto" height="5870" style="overflow:visible " version="1.1" xmlns="http://www.w3.org/2000/svg"><rect x="20" y="20" width="200" height="40" style="fill:white;stroke:black;stroke-width:1" /><text x="30" y="30" font-size="10" style="fill:blue">xs:schema</text><text x="30" y="40" font-size="8" style="fill:black">xmlns: http://www.uniovi.es</text><text x="30" y="50" font-size="8" style="fill:black">targetNamespace: http://www.uniovi.es</text><text x="30" y="60" font-size="8" style="fill:black">xmlns:tns: http://www.uniovi.es</text><text x="30" y="70" font-size="8" style="fill:black">xmlns:xs: http://www.w3.org/2001/XMLSchema</text><text x="30" y="80" font-size="8" style="fill:black">elementFormDefault: qualified</text><text x="30" y="90" font-size="8" style="fill:black">attributeFormDefault: unqualified</text><rect x="240" y="20" width="200" height="40" style="fill:white;stroke:black;stroke-width:1" /><text x="250" y="30" font-size="10" style="fill:blue">xs:element</text><path d="M220 40 C240 40 220 40 240 40" style="fill:transparent;stroke:black" /><text x="250" y="40" font-size="8" style="fill:black">name: circuito</text><rect x="460" y="20" width="200" height="40" style="fill:white;stroke:black;stroke-width:1" /><text x="470" y="30" font-size="10" style="fill:blue">xs:complexType</text><path d="M440 40 C460 40 440 40 460 40" style="fill:transparent;stroke:black" /><rect x="680" y="20" width="200" height="40" style="fill:white;stroke:black;stroke-width:1" /><text x="690" y="30" font-size="10" style="fill:blue">xs:sequence</text><path d="M660 40 C680 40 660 40 680 40" style="fill:transparent;stroke:black" /><rect x="900" y="20" width="200" height="40" style="fill:white;stroke:black;stroke-width:1" /><text x="910" y="30" font-size="10" style="fill:blue">xs:element</text><path d="M880 40 C900 40 880 40 900 40" style="fill:transparent;stroke:black" /><text x="910" y="40" font-size="8" style="fill:black">ref: nombre</text><rect x="900" y="70" width="200" height="40" style="fill:white;stroke:black;stroke-width:1" /><text x="910" y="80" font-size="10" style="fill:blue">xs:element</text><path d="M880 40 C900 40 880 90 900 90" style="fill:transparent;stroke:black" /><text x="910" y="90" font-size="8" style="fill:black">ref: longitud_circuito</text><rect x="900" y="120" width="200" height="40" style="fill:white;stroke:black;stroke-width:1" /><text x="910" y="130" font-size="10" style="fill:blue">xs:element</text><path d="M880 40 C900 40 880 140 900 140" style="fill:transparent;stroke:black" /><text x="910" y="140" font-size="8" style="fill:black">ref: anchura_media</text><rect x="900" y="170" width="200" height="40" style="fill:white;stroke:black;stroke-width:1" /><text x="910" y="180" font-size="10" style="fill:blue">xs:element</text><path d="M880 40 C900 40 880 190 900 190" style="fill:transparent;stroke:black" /><text x="910" y="190" font-size="8" style="fill:black">ref: fecha_carrera</text><rect x="900" y="220" width="200" height="40" style="fill:white;stroke:black;stroke-width:1" /><text x="910" y="230" font-size="10" style="fill:blue">xs:element</text><path d="M880 40 C900 40 880 240 900 240" style="fill:transparent;stroke:black" /><text x="910" y="240" font-size="8" style="fill:black">ref: hora_inicio</text><rect x="900" y="270" width="200" height="40" style="fill:white;stroke:black;stroke-width:1" /><text x="910" y="280" font-size="10" style="fill:blue">xs:element</text><path d="M880 40 C900 40 880 290 900 290" style="fill:transparent;stroke:black" /><text x="910" y="290" font-size="8" style="fill:black">ref: numero_vueltas</text><rect x="900" y="320" width="200" height="40" style="fill:white;stroke:black;stroke-width:1" /><text x="910" y="330" font-size="10" style="fill:blue">xs:element</text><path d="M880 40 C900 40 880 340 900 340" style="fill:transparent;stroke:black" /><text x="910" y="340" font-size="8" style="fill:black">ref: localidad</text><rect x="900" y="370" width="200" height="40" style="fill:white;stroke:black;stroke-width:1" /><text x="910" y="380" font-size="10" style="fill:blue">xs:element</text><path d="M880 40 C900 40 880 390 900 390" style="fill:transparent;stroke:black" /><text x="910" y="390" font-size="8" style="fill:black">ref: pais</text><rect x="900" y="420" width="200" height="40" style="fill:white;stroke:black;stroke-width:1" /><text x="910" y="430" font-size="10" style="fill:blue">xs:element</text><path d="M880 40 C900 40 880 440 900 440" style="fill:transparent;stroke:black" /><text x="910" y="440" font-size="8" style="fill:black">ref: patrocinador</text><rect x="900" y="470" width="200" height="40" style="fill:white;stroke:black;stroke-width:1" /><text x="910" y="480" font-size="10" style="fill:blue">xs:element</text><path d="M880 40 C900 40 880 490 900 490" style="fill:transparent;stroke:black" /><text x="910" y="490" font-size="8" style="fill:black">ref: referencias</text><rect x="900" y="520" width="200" height="40" style="fill:white;stroke:black;stroke-width:1" /><text x="910" y="530" font-size="10" style="fill:blue">xs:element</text><path d="M880 40 C900 40 880 540 900 540" style="fill:transparent;stroke:black" /><text x="910" y="540" font-size="8" style="fill:black">ref: galeria_fotografias</text><rect x="900" y="570" width="200" height="40" style="fill:white;stroke:black;stroke-width:1" /><text x="910" y="580" font-size="10" style="fill:blue">xs:element</text><path d="M880 40 C900 40 880 590 900 590" style="fill:transparent;stroke:black" /><text x="910" y="590" font-size="8" style="fill:black">ref: galeria_videos</text><rect x="900" y="620" width="200" height="40" style="fill:white;stroke:black;stroke-width:1" /><text x="910" y="630" font-size="10" style="fill:blue">xs:element</text><path d="M880 40 C900 40 880 640 900 640" style="fill:transparent;stroke:black" /><text x="910" y="640" font-size="8" style="fill:black">ref: punto_origen</text><rect x="900" y="670" width="200" height="40" style="fill:white;stroke:black;stroke-width:1" /><text x="910" y="680" font-size="10" style="fill:blue">xs:element</text><path d="M880 40 C900 40 880 690 900 690" style="fill:transparent;stroke:black" /><text x="910" y="690" font-size="8" style="fill:black">ref: tramos</text><rect x="900" y="720" width="200" height="40" style="fill:white;stroke:black;stroke-width:1" /><text x="910" y="730" font-size="10" style="fill:blue">xs:element</text><path d="M880 40 C900 40 880 740 900 740" style="fill:transparent;stroke:black" /><text x="910" y="740" font-size="8" style="fill:black">ref: resultado</text><rect x="900" y="770" width="200" height="40" style="fill:white;stroke:black;stroke-width:1" /><text x="910" y="780" font-size="10" style="fill:blue">xs:element</text><path d="M880 40 C900 40 880 790 900 790" style="fill:transparent;stroke:black" /><text x="910" y="790" font-size="8" style="fill:black">ref: clasificados_mundial</text><rect x="240" y="970" width="200" height="40" style="fill:white;stroke:black;stroke-width:1" /><text x="250" y="980" font-size="10" style="fill:blue">xs:element</text><path d="M220 40 C240 40 220 990 240 990" style="fill:transparent;stroke:black" /><text x="250" y="990" font-size="8" style="fill:black">name: nombre</text><text x="250" y="1000" font-size="8" style="fill:black">type: xs:string</text><rect x="240" y="1020" width="200" height="40" style="fill:white;stroke:black;stroke-width:1" /><text x="250" y="1030" font-size="10" style="fill:blue">xs:element</text><path d="M220 40 C240 40 220 1040 240 1040" style="fill:transparent;stroke:black" /><text x="250" y="1040" font-size="8" style="fill:black">name: longitud_circuito</text><rect x="460" y="1020" width="200" height="40" style="fill:white;stroke:black;stroke-width:1" /><text x="470" y="1030" font-size="10" style="fill:blue">xs:complexType</text><path d="M440 1040 C460 1040 440 1040 460 1040" style="fill:transparent;stroke:black" /><rect x="680" y="1020" width="200" height="40" style="fill:white;stroke:black;stroke-width:1" /><text x="690" y="1030" font-size="10" style="fill:blue">xs:simpleContent</text><path d="M660 1040 C680 1040 660 1040 680 1040" style="fill:transparent;stroke:black" /><rect x="900" y="1020" width="200" height="40" style="fill:white;stroke:black;stroke-width:1" /><text x="910" y="1030" font-size="10" style="fill:blue">xs:extension</text><path d="M880 1040 C900 1040 880 1040 900 1040" style="fill:transparent;stroke:black" /><text x="910" y="1040" font-size="8" style="fill:black">base: xs:string</text><rect x="1120" y="1020" width="200" height="40" style="fill:white;stroke:black;stroke-width:1" /><text x="1130" y="1030" font-size="10" style="fill:blue">xs:attribute</text><path d="M1100 1040 C1120 1040 1100 1040 1120 1040" style="fill:transparent;stroke:black" /><text x="1130" y="1040" font-size="8" style="fill:black">name: unidades</text><text x="1130" y="1050" font-size="8" style="fill:black">use: required</text><rect x="1340" y="1020" width="200" height="40" style="fill:white;stroke:black;stroke-width:1" /><text x="1350" y="1030" font-size="10" style="fill:blue">xs:simpleType</text><path d="M1320 1040 C1340 1040 1320 1040 1340 1040" style="fill:transparent;stroke:black" /><rect x="1560" y="1020" width="200" height="40" style="fill:white;stroke:black;stroke-width:1" /><text x="1570" y="1030" font-size="10" style="fill:blue">xs:restriction</text><path d="M1540 1040 C1560 1040 1540 1040 1560 1040" style="fill:transparent;stroke:black" /><text x="1570" y="1040" font-size="8" style="fill:black">base: xs:NMTOKEN</text><rect x="1780" y="1020" width="200" height="40" style="fill:white;stroke:black;stroke-width:1" /><text x="1790" y="1030" font-size="10" style="fill:blue">xs:enumeration</text><path d="M1760 1040 C1780 1040 1760 1040 1780 1040" style="fill:transparent;stroke:black" /><text x="1790" y="1040" font-size="8" style="fill:black">value: m</text><rect x="240" y="1420" width="200" height="40" style="fill:white;stroke:black;stroke-width:1" /><text x="250" y="1430" font-size="10" style="fill:blue">xs:element</text><path d="M220 40 C240 40 220 1440 240 1440" style="fill:transparent;stroke:black" /><text x="250" y="1440" font-size="8" style="fill:black">name: anchura_media</text><rect x="460" y="1420" width="200" height="40" style="fill:white;stroke:black;stroke-width:1" /><text x="470" y="1430" font-size="10" style="fill:blue">xs:complexType</text><path d="M440 1440 C460 1440 440 1440 460 1440" style="fill:transparent;stroke:black" /><rect x="680" y="1420" width="200" height="40" style="fill:white;stroke:black;stroke-width:1" /><text x="690" y="1430" font-size="10" style="fill:blue">xs:simpleContent</text><path d="M660 1440 C680 1440 660 1440 680 1440" style="fill:transparent;stroke:black" /><rect x="900" y="1420" width="200" height="40" style="fill:white;stroke:black;stroke-width:1" /><text x="910" y="1430" font-size="10" style="fill:blue">xs:extension</text><path d="M880 1440 C900 1440 880 1440 900 1440" style="fill:transparent;stroke:black" /><text x="910" y="1440" font-size="8" style="fill:black">base: xs:string</text><rect x="1120" y="1420" width="200" height="40" style="fill:white;stroke:black;stroke-width:1" /><text x="1130" y="1430" font-size="10" style="fill:blue">xs:attribute</text><path d="M1100 1440 C1120 1440 1100 1440 1120 1440" style="fill:transparent;stroke:black" /><text x="1130" y="1440" font-size="8" style="fill:black">name: unidades</text><text x="1130" y="1450" font-size="8" style="fill:black">use: required</text><rect x="1340" y="1420" width="200" height="40" style="fill:white;stroke:black;stroke-width:1" /><text x="1350" y="1430" font-size="10" style="fill:blue">xs:simpleType</text><path d="M1320 1440 C1340 1440 1320 1440 1340 1440" style="fill:transparent;stroke:black" /><rect x="1560" y="1420" width="200" height="40" style="fill:white;stroke:black;stroke-width:1" /><text x="1570" y="1430" font-size="10" style="fill:blue">xs:restriction</text><path d="M1540 1440 C1560 1440 1540 1440 1560 1440" style="fill:transparent;stroke:black" /><text x="1570" y="1440" font-size="8" style="fill:black">base: xs:NMTOKEN</text><rect x="1780" y="1420" width="200" height="40" style="fill:white;stroke:black;stroke-width:1" /><text x="1790" y="1430" font-size="10" style="fill:blue">xs:enumeration</text><path d="M1760 1440 C1780 1440 1760 1440 1780 1440" style="fill:transparent;stroke:black" /><text x="1790" y="1440" font-size="8" style="fill:black">value: m</text><rect x="240" y="1820" width="200" height="40" style="fill:white;stroke:black;stroke-width:1" /><text x="250" y="1830" font-size="10" style="fill:blue">xs:element</text><path d="M220 40 C240 40 220 1840 240 1840" style="fill:transparent;stroke:black" /><text x="250" y="1840" font-size="8" style="fill:black">name: fecha_carrera</text><text x="250" y="1850" font-size="8" style="fill:black">type: xs:string</text><rect x="240" y="1870" width="200" height="40" style="fill:white;stroke:black;stroke-width:1" /><text x="250" y="1880" font-size="10" style="fill:blue">xs:element</text><path d="M220 40 C240 40 220 1890 240 1890" style="fill:transparent;stroke:black" /><text x="250" y="1890" font-size="8" style="fill:black">name: hora_inicio</text><text x="250" y="1900" font-size="8" style="fill:black">type: xs:string</text><rect x="240" y="1920" width="200" height="40" style="fill:white;stroke:black;stroke-width:1" /><text x="250" y="1930" font-size="10" style="fill:blue">xs:element</text><path d="M220 40 C240 40 220 1940 240 1940" style="fill:transparent;stroke:black" /><text x="250" y="1940" font-size="8" style="fill:black">name: numero_vueltas</text><text x="250" y="1950" font-size="8" style="fill:black">type: xs:string</text><rect x="240" y="1970" width="200" height="40" style="fill:white;stroke:black;stroke-width:1" /><text x="250" y="1980" font-size="10" style="fill:blue">xs:element</text><path d="M220 40 C240 40 220 1990 240 1990" style="fill:transparent;stroke:black" /><text x="250" y="1990" font-size="8" style="fill:black">name: localidad</text><text x="250" y="2000" font-size="8" style="fill:black">type: xs:string</text><rect x="240" y="2020" width="200" height="40" style="fill:white;stroke:black;stroke-width:1" /><text x="250" y="2030" font-size="10" style="fill:blue">xs:element</text><path d="M220 40 C240 40 220 2040 240 2040" style="fill:transparent;stroke:black" /><text x="250" y="2040" font-size="8" style="fill:black">name: pais</text><text x="250" y="2050" font-size="8" style="fill:black">type: xs:string</text><rect x="240" y="2070" width="200" height="40" style="fill:white;stroke:black;stroke-width:1" /><text x="250" y="2080" font-size="10" style="fill:blue">xs:element</text><path d="M220 40 C240 40 220 2090 240 2090" style="fill:transparent;stroke:black" /><text x="250" y="2090" font-size="8" style="fill:black">name: patrocinador</text><text x="250" y="2100" font-size="8" style="fill:black">type: xs:string</text><rect x="240" y="2120" width="200" height="40" style="fill:white;stroke:black;stroke-width:1" /><text x="250" y="2130" font-size="10" style="fill:blue">xs:element</text><path d="M220 40 C240 40 220 2140 240 2140" style="fill:transparent;stroke:black" /><text x="250" y="2140" font-size="8" style="fill:black">name: referencias</text><rect x="460" y="2120" width="200" height="40" style="fill:white;stroke:black;stroke-width:1" /><text x="470" y="2130" font-size="10" style="fill:blue">xs:complexType</text><path d="M440 2140 C460 2140 440 2140 460 2140" style="fill:transparent;stroke:black" /><rect x="680" y="2120" width="200" height="40" style="fill:white;stroke:black;stroke-width:1" /><text x="690" y="2130" font-size="10" style="fill:blue">xs:sequence</text><path d="M660 2140 C680 2140 660 2140 680 2140" style="fill:transparent;stroke:black" /><rect x="900" y="2120" width="200" height="40" style="fill:white;stroke:black;stroke-width:1" /><text x="910" y="2130" font-size="10" style="fill:blue">xs:element</text><path d="M880 2140 C900 2140 880 2140 900 2140" style="fill:transparent;stroke:black" /><text x="910" y="2140" font-size="8" style="fill:black">minOccurs: 1</text><text x="910" y="2150" font-size="8" style="fill:black">maxOccurs: unbounded</text><text x="910" y="2160" font-size="8" style="fill:black">ref: referencia</text><rect x="240" y="2320" width="200" height="40" style="fill:white;stroke:black;stroke-width:1" /><text x="250" y="2330" font-size="10" style="fill:blue">xs:element</text><path d="M220 40 C240 40 220 2340 240 2340" style="fill:transparent;stroke:black" /><text x="250" y="2340" font-size="8" style="fill:black">name: referencia</text><text x="250" y="2350" font-size="8" style="fill:black">type: xs:string</text><rect x="240" y="2370" width="200" height="40" style="fill:white;stroke:black;stroke-width:1" /><text x="250" y="2380" font-size="10" style="fill:blue">xs:element</text><path d="M220 40 C240 40 220 2390 240 2390" style="fill:transparent;stroke:black" /><text x="250" y="2390" font-size="8" style="fill:black">name: galeria_fotografias</text><rect x="460" y="2370" width="200" height="40" style="fill:white;stroke:black;stroke-width:1" /><text x="470" y="2380" font-size="10" style="fill:blue">xs:complexType</text><path d="M440 2390 C460 2390 440 2390 460 2390" style="fill:transparent;stroke:black" /><rect x="680" y="2370" width="200" height="40" style="fill:white;stroke:black;stroke-width:1" /><text x="690" y="2380" font-size="10" style="fill:blue">xs:sequence</text><path d="M660 2390 C680 2390 660 2390 680 2390" style="fill:transparent;stroke:black" /><rect x="900" y="2370" width="200" height="40" style="fill:white;stroke:black;stroke-width:1" /><text x="910" y="2380" font-size="10" style="fill:blue">xs:element</text><path d="M880 2390 C900 2390 880 2390 900 2390" style="fill:transparent;stroke:black" /><text x="910" y="2390" font-size="8" style="fill:black">minOccurs: 1</text><text x="910" y="2400" font-size="8" style="fill:black">maxOccurs: unbounded</text><text x="910" y="2410" font-size="8" style="fill:black">ref: fotografia</text><rect x="240" y="2570" width="200" height="40" style="fill:white;stroke:black;stroke-width:1" /><text x="250" y="2580" font-size="10" style="fill:blue">xs:element</text><path d="M220 40 C240 40 220 2590 240 2590" style="fill:transparent;stroke:black" /><text x="250" y="2590" font-size="8" style="fill:black">name: fotografia</text><text x="250" y="2600" font-size="8" style="fill:black">type: xs:string</text><rect x="240" y="2620" width="200" height="40" style="fill:white;stroke:black;stroke-width:1" /><text x="250" y="2630" font-size="10" style="fill:blue">xs:element</text><path d="M220 40 C240 40 220 2640 240 2640" style="fill:transparent;stroke:black" /><text x="250" y="2640" font-size="8" style="fill:black">name: galeria_videos</text><rect x="460" y="2620" width="200" height="40" style="fill:white;stroke:black;stroke-width:1" /><text x="470" y="2630" font-size="10" style="fill:blue">xs:complexType</text><path d="M440 2640 C460 2640 440 2640 460 2640" style="fill:transparent;stroke:black" /><rect x="680" y="2620" width="200" height="40" style="fill:white;stroke:black;stroke-width:1" /><text x="690" y="2630" font-size="10" style="fill:blue">xs:sequence</text><path d="M660 2640 C680 2640 660 2640 680 2640" style="fill:transparent;stroke:black" /><rect x="900" y="2620" width="200" height="40" style="fill:white;stroke:black;stroke-width:1" /><text x="910" y="2630" font-size="10" style="fill:blue">xs:element</text><path d="M880 2640 C900 2640 880 2640 900 2640" style="fill:transparent;stroke:black" /><text x="910" y="2640" font-size="8" style="fill:black">ref: video</text><rect x="900" y="2670" width="200" height="40" style="fill:white;stroke:black;stroke-width:1" /><text x="910" y="2680" font-size="10" style="fill:blue">xs:element</text><path d="M880 2640 C900 2640 880 2690 900 2690" style="fill:transparent;stroke:black" /><text x="910" y="2690" font-size="8" style="fill:black">minOccurs: 0</text><text x="910" y="2700" font-size="8" style="fill:black">maxOccurs: 1</text><text x="910" y="2710" font-size="8" style="fill:black">ref: video</text><rect x="900" y="2720" width="200" height="40" style="fill:white;stroke:black;stroke-width:1" /><text x="910" y="2730" font-size="10" style="fill:blue">xs:element</text><path d="M880 2640 C900 2640 880 2740 900 2740" style="fill:transparent;stroke:black" /><text x="910" y="2740" font-size="8" style="fill:black">minOccurs: 0</text><text x="910" y="2750" font-size="8" style="fill:black">maxOccurs: 1</text><text x="910" y="2760" font-size="8" style="fill:black">ref: video</text><rect x="240" y="2920" width="200" height="40" style="fill:white;stroke:black;stroke-width:1" /><text x="250" y="2930" font-size="10" style="fill:blue">xs:element</text><path d="M220 40 C240 40 220 2940 240 2940" style="fill:transparent;stroke:black" /><text x="250" y="2940" font-size="8" style="fill:black">name: video</text><text x="250" y="2950" font-size="8" style="fill:black">type: xs:string</text><rect x="240" y="2970" width="200" height="40" style="fill:white;stroke:black;stroke-width:1" /><text x="250" y="2980" font-size="10" style="fill:blue">xs:element</text><path d="M220 40 C240 40 220 2990 240 2990" style="fill:transparent;stroke:black" /><text x="250" y="2990" font-size="8" style="fill:black">name: punto_origen</text><rect x="460" y="2970" width="200" height="40" style="fill:white;stroke:black;stroke-width:1" /><text x="470" y="2980" font-size="10" style="fill:blue">xs:complexType</text><path d="M440 2990 C460 2990 440 2990 460 2990" style="fill:transparent;stroke:black" /><rect x="680" y="2970" width="200" height="40" style="fill:white;stroke:black;stroke-width:1" /><text x="690" y="2980" font-size="10" style="fill:blue">xs:sequence</text><path d="M660 2990 C680 2990 660 2990 680 2990" style="fill:transparent;stroke:black" /><rect x="900" y="2970" width="200" height="40" style="fill:white;stroke:black;stroke-width:1" /><text x="910" y="2980" font-size="10" style="fill:blue">xs:element</text><path d="M880 2990 C900 2990 880 2990 900 2990" style="fill:transparent;stroke:black" /><text x="910" y="2990" font-size="8" style="fill:black">ref: longitud</text><rect x="900" y="3020" width="200" height="40" style="fill:white;stroke:black;stroke-width:1" /><text x="910" y="3030" font-size="10" style="fill:blue">xs:element</text><path d="M880 2990 C900 2990 880 3040 900 3040" style="fill:transparent;stroke:black" /><text x="910" y="3040" font-size="8" style="fill:black">ref: latitud</text><rect x="900" y="3070" width="200" height="40" style="fill:white;stroke:black;stroke-width:1" /><text x="910" y="3080" font-size="10" style="fill:blue">xs:element</text><path d="M880 2990 C900 2990 880 3090 900 3090" style="fill:transparent;stroke:black" /><text x="910" y="3090" font-size="8" style="fill:black">ref: altitud</text><rect x="240" y="3270" width="200" height="40" style="fill:white;stroke:black;stroke-width:1" /><text x="250" y="3280" font-size="10" style="fill:blue">xs:element</text><path d="M220 40 C240 40 220 3290 240 3290" style="fill:transparent;stroke:black" /><text x="250" y="3290" font-size="8" style="fill:black">name: longitud</text><text x="250" y="3300" font-size="8" style="fill:black">type: xs:string</text><rect x="240" y="3320" width="200" height="40" style="fill:white;stroke:black;stroke-width:1" /><text x="250" y="3330" font-size="10" style="fill:blue">xs:element</text><path d="M220 40 C240 40 220 3340 240 3340" style="fill:transparent;stroke:black" /><text x="250" y="3340" font-size="8" style="fill:black">name: latitud</text><text x="250" y="3350" font-size="8" style="fill:black">type: xs:string</text><rect x="240" y="3370" width="200" height="40" style="fill:white;stroke:black;stroke-width:1" /><text x="250" y="3380" font-size="10" style="fill:blue">xs:element</text><path d="M220 40 C240 40 220 3390 240 3390" style="fill:transparent;stroke:black" /><text x="250" y="3390" font-size="8" style="fill:black">name: altitud</text><text x="250" y="3400" font-size="8" style="fill:black">type: xs:string</text><rect x="240" y="3420" width="200" height="40" style="fill:white;stroke:black;stroke-width:1" /><text x="250" y="3430" font-size="10" style="fill:blue">xs:element</text><path d="M220 40 C240 40 220 3440 240 3440" style="fill:transparent;stroke:black" /><text x="250" y="3440" font-size="8" style="fill:black">name: tramos</text><rect x="460" y="3420" width="200" height="40" style="fill:white;stroke:black;stroke-width:1" /><text x="470" y="3430" font-size="10" style="fill:blue">xs:complexType</text><path d="M440 3440 C460 3440 440 3440 460 3440" style="fill:transparent;stroke:black" /><rect x="680" y="3420" width="200" height="40" style="fill:white;stroke:black;stroke-width:1" /><text x="690" y="3430" font-size="10" style="fill:blue">xs:sequence</text><path d="M660 3440 C680 3440 660 3440 680 3440" style="fill:transparent;stroke:black" /><rect x="900" y="3420" width="200" height="40" style="fill:white;stroke:black;stroke-width:1" /><text x="910" y="3430" font-size="10" style="fill:blue">xs:element</text><path d="M880 3440 C900 3440 880 3440 900 3440" style="fill:transparent;stroke:black" /><text x="910" y="3440" font-size="8" style="fill:black">minOccurs: 1</text><text x="910" y="3450" font-size="8" style="fill:black">maxOccurs: unbounded</text><text x="910" y="3460" font-size="8" style="fill:black">ref: tramo</text><rect x="240" y="3620" width="200" height="40" style="fill:white;stroke:black;stroke-width:1" /><text x="250" y="3630" font-size="10" style="fill:blue">xs:element</text><path d="M220 40 C240 40 220 3640 240 3640" style="fill:transparent;stroke:black" /><text x="250" y="3640" font-size="8" style="fill:black">name: tramo</text><rect x="460" y="3620" width="200" height="40" style="fill:white;stroke:black;stroke-width:1" /><text x="470" y="3630" font-size="10" style="fill:blue">xs:complexType</text><path d="M440 3640 C460 3640 440 3640 460 3640" style="fill:transparent;stroke:black" /><rect x="680" y="3620" width="200" height="40" style="fill:white;stroke:black;stroke-width:1" /><text x="690" y="3630" font-size="10" style="fill:blue">xs:sequence</text><path d="M660 3640 C680 3640 660 3640 680 3640" style="fill:transparent;stroke:black" /><rect x="900" y="3620" width="200" height="40" style="fill:white;stroke:black;stroke-width:1" /><text x="910" y="3630" font-size="10" style="fill:blue">xs:element</text><path d="M880 3640 C900 3640 880 3640 900 3640" style="fill:transparent;stroke:black" /><text x="910" y="3640" font-size="8" style="fill:black">ref: distancia</text><rect x="900" y="3670" width="200" height="40" style="fill:white;stroke:black;stroke-width:1" /><text x="910" y="3680" font-size="10" style="fill:blue">xs:element</text><path d="M880 3640 C900 3640 880 3690 900 3690" style="fill:transparent;stroke:black" /><text x="910" y="3690" font-size="8" style="fill:black">ref: punto_final</text><rect x="900" y="3720" width="200" height="40" style="fill:white;stroke:black;stroke-width:1" /><text x="910" y="3730" font-size="10" style="fill:blue">xs:element</text><path d="M880 3640 C900 3640 880 3740 900 3740" style="fill:transparent;stroke:black" /><text x="910" y="3740" font-size="8" style="fill:black">ref: sector</text><rect x="240" y="3920" width="200" height="40" style="fill:white;stroke:black;stroke-width:1" /><text x="250" y="3930" font-size="10" style="fill:blue">xs:element</text><path d="M220 40 C240 40 220 3940 240 3940" style="fill:transparent;stroke:black" /><text x="250" y="3940" font-size="8" style="fill:black">name: distancia</text><rect x="460" y="3920" width="200" height="40" style="fill:white;stroke:black;stroke-width:1" /><text x="470" y="3930" font-size="10" style="fill:blue">xs:complexType</text><path d="M440 3940 C460 3940 440 3940 460 3940" style="fill:transparent;stroke:black" /><rect x="680" y="3920" width="200" height="40" style="fill:white;stroke:black;stroke-width:1" /><text x="690" y="3930" font-size="10" style="fill:blue">xs:simpleContent</text><path d="M660 3940 C680 3940 660 3940 680 3940" style="fill:transparent;stroke:black" /><rect x="900" y="3920" width="200" height="40" style="fill:white;stroke:black;stroke-width:1" /><text x="910" y="3930" font-size="10" style="fill:blue">xs:extension</text><path d="M880 3940 C900 3940 880 3940 900 3940" style="fill:transparent;stroke:black" /><text x="910" y="3940" font-size="8" style="fill:black">base: xs:string</text><rect x="1120" y="3920" width="200" height="40" style="fill:white;stroke:black;stroke-width:1" /><text x="1130" y="3930" font-size="10" style="fill:blue">xs:attribute</text><path d="M1100 3940 C1120 3940 1100 3940 1120 3940" style="fill:transparent;stroke:black" /><text x="1130" y="3940" font-size="8" style="fill:black">name: unidades</text><text x="1130" y="3950" font-size="8" style="fill:black">use: required</text><rect x="1340" y="3920" width="200" height="40" style="fill:white;stroke:black;stroke-width:1" /><text x="1350" y="3930" font-size="10" style="fill:blue">xs:simpleType</text><path d="M1320 3940 C1340 3940 1320 3940 1340 3940" style="fill:transparent;stroke:black" /><rect x="1560" y="3920" width="200" height="40" style="fill:white;stroke:black;stroke-width:1" /><text x="1570" y="3930" font-size="10" style="fill:blue">xs:restriction</text><path d="M1540 3940 C1560 3940 1540 3940 1560 3940" style="fill:transparent;stroke:black" /><text x="1570" y="3940" font-size="8" style="fill:black">base: xs:NMTOKEN</text><rect x="1780" y="3920" width="200" height="40" style="fill:white;stroke:black;stroke-width:1" /><text x="1790" y="3930" font-size="10" style="fill:blue">xs:enumeration</text><path d="M1760 3940 C1780 3940 1760 3940 1780 3940" style="fill:transparent;stroke:black" /><text x="1790" y="3940" font-size="8" style="fill:black">value: m</text><rect x="240" y="4320" width="200" height="40" style="fill:white;stroke:black;stroke-width:1" /><text x="250" y="4330" font-size="10" style="fill:blue">xs:element</text><path d="M220 40 C240 40 220 4340 240 4340" style="fill:transparent;stroke:black" /><text x="250" y="4340" font-size="8" style="fill:black">name: punto_final</text><rect x="460" y="4320" width="200" height="40" style="fill:white;stroke:black;stroke-width:1" /><text x="470" y="4330" font-size="10" style="fill:blue">xs:complexType</text><path d="M440 4340 C460 4340 440 4340 460 4340" style="fill:transparent;stroke:black" /><rect x="680" y="4320" width="200" height="40" style="fill:white;stroke:black;stroke-width:1" /><text x="690" y="4330" font-size="10" style="fill:blue">xs:sequence</text><path d="M660 4340 C680 4340 660 4340 680 4340" style="fill:transparent;stroke:black" /><rect x="900" y="4320" width="200" height="40" style="fill:white;stroke:black;stroke-width:1" /><text x="910" y="4330" font-size="10" style="fill:blue">xs:element</text><path d="M880 4340 C900 4340 880 4340 900 4340" style="fill:transparent;stroke:black" /><text x="910" y="4340" font-size="8" style="fill:black">ref: longitud</text><rect x="900" y="4370" width="200" height="40" style="fill:white;stroke:black;stroke-width:1" /><text x="910" y="4380" font-size="10" style="fill:blue">xs:element</text><path d="M880 4340 C900 4340 880 4390 900 4390" style="fill:transparent;stroke:black" /><text x="910" y="4390" font-size="8" style="fill:black">ref: latitud</text><rect x="900" y="4420" width="200" height="40" style="fill:white;stroke:black;stroke-width:1" /><text x="910" y="4430" font-size="10" style="fill:blue">xs:element</text><path d="M880 4340 C900 4340 880 4440 900 4440" style="fill:transparent;stroke:black" /><text x="910" y="4440" font-size="8" style="fill:black">ref: altitud</text><rect x="240" y="4620" width="200" height="40" style="fill:white;stroke:black;stroke-width:1" /><text x="250" y="4630" font-size="10" style="fill:blue">xs:element</text><path d="M220 40 C240 40 220 4640 240 4640" style="fill:transparent;stroke:black" /><text x="250" y="4640" font-size="8" style="fill:black">name: sector</text><text x="250" y="4650" font-size="8" style="fill:black">type: xs:string</text><rect x="240" y="4670" width="200" height="40" style="fill:white;stroke:black;stroke-width:1" /><text x="250" y="4680" font-size="10" style="fill:blue">xs:element</text><path d="M220 40 C240 40 220 4690 240 4690" style="fill:transparent;stroke:black" /><text x="250" y="4690" font-size="8" style="fill:black">name: resultado</text><rect x="460" y="4670" width="200" height="40" style="fill:white;stroke:black;stroke-width:1" /><text x="470" y="4680" font-size="10" style="fill:blue">xs:complexType</text><path d="M440 4690 C460 4690 440 4690 460 4690" style="fill:transparent;stroke:black" /><rect x="680" y="4670" width="200" height="40" style="fill:white;stroke:black;stroke-width:1" /><text x="690" y="4680" font-size="10" style="fill:blue">xs:sequence</text><path d="M660 4690 C680 4690 660 4690 680 4690" style="fill:transparent;stroke:black" /><rect x="900" y="4670" width="200" height="40" style="fill:white;stroke:black;stroke-width:1" /><text x="910" y="4680" font-size="10" style="fill:blue">xs:element</text><path d="M880 4690 C900 4690 880 4690 900 4690" style="fill:transparent;stroke:black" /><text x="910" y="4690" font-size="8" style="fill:black">ref: vencedor</text><rect x="900" y="4720" width="200" height="40" style="fill:white;stroke:black;stroke-width:1" /><text x="910" y="4730" font-size="10" style="fill:blue">xs:element</text><path d="M880 4690 C900 4690 880 4740 900 4740" style="fill:transparent;stroke:black" /><text x="910" y="4740" font-size="8" style="fill:black">ref: tiempo</text><rect x="240" y="4920" width="200" height="40" style="fill:white;stroke:black;stroke-width:1" /><text x="250" y="4930" font-size="10" style="fill:blue">xs:element</text><path d="M220 40 C240 40 220 4940 240 4940" style="fill:transparent;stroke:black" /><text x="250" y="4940" font-size="8" style="fill:black">name: vencedor</text><text x="250" y="4950" font-size="8" style="fill:black">type: xs:string</text><rect x="240" y="4970" width="200" height="40" style="fill:white;stroke:black;stroke-width:1" /><text x="250" y="4980" font-size="10" style="fill:blue">xs:element</text><path d="M220 40 C240 40 220 4990 240 4990" style="fill:transparent;stroke:black" /><text x="250" y="4990" font-size="8" style="fill:black">name: tiempo</text><text x="250" y="5000" font-size="8" style="fill:black">type: xs:string</text><rect x="240" y="5020" width="200" height="40" style="fill:white;stroke:black;stroke-width:1" /><text x="250" y="5030" font-size="10" style="fill:blue">xs:element</text><path d="M220 40 C240 40 220 5040 240 5040" style="fill:transparent;stroke:black" /><text x="250" y="5040" font-size="8" style="fill:black">name: clasificados_mundial</text><rect x="460" y="5020" width="200" height="40" style="fill:white;stroke:black;stroke-width:1" /><text x="470" y="5030" font-size="10" style="fill:blue">xs:complexType</text><path d="M440 5040 C460 5040 440 5040 460 5040" style="fill:transparent;stroke:black" /><rect x="680" y="5020" width="200" height="40" style="fill:white;stroke:black;stroke-width:1" /><text x="690" y="5030" font-size="10" style="fill:blue">xs:sequence</text><path d="M660 5040 C680 5040 660 5040 680 5040" style="fill:transparent;stroke:black" /><rect x="900" y="5020" width="200" height="40" style="fill:white;stroke:black;stroke-width:1" /><text x="910" y="5030" font-size="10" style="fill:blue">xs:element</text><path d="M880 5040 C900 5040 880 5040 900 5040" style="fill:transparent;stroke:black" /><text x="910" y="5040" font-size="8" style="fill:black">ref: piloto</text><rect x="900" y="5070" width="200" height="40" style="fill:white;stroke:black;stroke-width:1" /><text x="910" y="5080" font-size="10" style="fill:blue">xs:element</text><path d="M880 5040 C900 5040 880 5090 900 5090" style="fill:transparent;stroke:black" /><text x="910" y="5090" font-size="8" style="fill:black">ref: piloto</text><rect x="900" y="5120" width="200" height="40" style="fill:white;stroke:black;stroke-width:1" /><text x="910" y="5130" font-size="10" style="fill:blue">xs:element</text><path d="M880 5040 C900 5040 880 5140 900 5140" style="fill:transparent;stroke:black" /><text x="910" y="5140" font-size="8" style="fill:black">ref: piloto</text><rect x="240" y="5320" width="200" height="40" style="fill:white;stroke:black;stroke-width:1" /><text x="250" y="5330" font-size="10" style="fill:blue">xs:element</text><path d="M220 40 C240 40 220 5340 240 5340" style="fill:transparent;stroke:black" /><text x="250" y="5340" font-size="8" style="fill:black">name: piloto</text><rect x="460" y="5320" width="200" height="40" style="fill:white;stroke:black;stroke-width:1" /><text x="470" y="5330" font-size="10" style="fill:blue">xs:complexType</text><path d="M440 5340 C460 5340 440 5340 460 5340" style="fill:transparent;stroke:black" /><rect x="680" y="5320" width="200" height="40" style="fill:white;stroke:black;stroke-width:1" /><text x="690" y="5330" font-size="10" style="fill:blue">xs:simpleContent</text><path d="M660 5340 C680 5340 660 5340 680 5340" style="fill:transparent;stroke:black" /><rect x="900" y="5320" width="200" height="40" style="fill:white;stroke:black;stroke-width:1" /><text x="910" y="5330" font-size="10" style="fill:blue">xs:extension</text><path d="M880 5340 C900 5340 880 5340 900 5340" style="fill:transparent;stroke:black" /><text x="910" y="5340" font-size="8" style="fill:black">base: xs:string</text><rect x="1120" y="5320" width="200" height="40" style="fill:white;stroke:black;stroke-width:1" /><text x="1130" y="5330" font-size="10" style="fill:blue">xs:attribute</text><path d="M1100 5340 C1120 5340 1100 5340 1120 5340" style="fill:transparent;stroke:black" /><text x="1130" y="5340" font-size="8" style="fill:black">name: posicion</text><text x="1130" y="5350" font-size="8" style="fill:black">use: required</text><rect x="1340" y="5320" width="200" height="40" style="fill:white;stroke:black;stroke-width:1" /><text x="1350" y="5330" font-size="10" style="fill:blue">xs:simpleType</text><path d="M1320 5340 C1340 5340 1320 5340 1340 5340" style="fill:transparent;stroke:black" /><rect x="1560" y="5320" width="200" height="40" style="fill:white;stroke:black;stroke-width:1" /><text x="1570" y="5330" font-size="10" style="fill:blue">xs:restriction</text><path d="M1540 5340 C1560 5340 1540 5340 1560 5340" style="fill:transparent;stroke:black" /><text x="1570" y="5340" font-size="8" style="fill:black">base: xs:NMTOKEN</text><rect x="1780" y="5320" width="200" height="40" style="fill:white;stroke:black;stroke-width:1" /><text x="1790" y="5330" font-size="10" style="fill:blue">xs:enumeration</text><path d="M1760 5340 C1780 5340 1760 5340 1780 5340" style="fill:transparent;stroke:black" /><text x="1790" y="5340" font-size="8" style="fill:black">value: 1</text><rect x="1780" y="5370" width="200" height="40" style="fill:white;stroke:black;stroke-width:1" /><text x="1790" y="5380" font-size="10" style="fill:blue">xs:enumeration</text><path d="M1760 5340 C1780 5340 1760 5390 1780 5390" style="fill:transparent;stroke:black" /><text x="1790" y="5390" font-size="8" style="fill:black">value: 2</text><rect x="1780" y="5420" width="200" height="40" style="fill:white;stroke:black;stroke-width:1" /><text x="1790" y="5430" font-size="10" style="fill:blue">xs:enumeration</text><path d="M1760 5340 C1780 5340 1760 5440 1780 5440" style="fill:transparent;stroke:black" /><text x="1790" y="5440" font-size="8" style="fill:black">value: 3</text></svg>